<svg id="visual" viewBox="0 0 900 450" width="900" height="450" xmlns="http://www.w3.org/2000/svg" xmlns:xlink="http://www.w3.org/1999/xlink" version="1.1"><rect x="0" y="0" width="900" height="450" fill="#FFFFFF"></rect><g fill="#f93d5b"><circle r="21" cx="188" cy="134"></circle><circle r="14" cx="14" cy="293"></circle><circle r="13" cx="400" cy="224"></circle><circle r="15" cx="379" cy="282"></circle><circle r="19" cx="678" cy="248"></circle><circle r="13" cx="350" cy="435"></circle><circle r="18" cx="771" cy="158"></circle><circle r="15" cx="172" cy="1"></circle><circle r="13" cx="192" cy="365"></circle><circle r="16" cx="698" cy="6"></circle><circle r="15" cx="659" cy="379"></circle><circle r="13" cx="69" cy="349"></circle><circle r="15" cx="821" cy="403"></circle><circle r="18" cx="887" cy="159"></circle><circle r="18" cx="253" cy="247"></circle><circle r="19" cx="48" cy="69"></circle><circle r="16" cx="17" cy="236"></circle><circle r="19" cx="848" cy="234"></circle><circle r="14" cx="463" cy="28"></circle><circle r="17" cx="446" cy="224"></circle><circle r="17" cx="734" cy="346"></circle></g></svg>