<svg id="visual" viewBox="0 0 900 450" width="900" height="450" xmlns="http://www.w3.org/2000/svg" xmlns:xlink="http://www.w3.org/1999/xlink" version="1.1"><rect width="900" height="450" fill="#FFFFFF"></rect><g><g transform="translate(764 416)"><path d="M53.1 1.1C53.1 24.5 26.5 48.9 1.3 48.9C-24 48.9 -47.9 24.5 -47.9 1.1C-47.9 -22.2 -24 -44.3 1.3 -44.3C26.5 -44.3 53.1 -22.2 53.1 1.1Z" stroke="#F7760E" fill="none" stroke-width="20"></path></g><g transform="translate(408 347)"><path d="M27.9 -1.9C27.9 13.6 14 27.2 0.1 27.2C-13.8 27.2 -27.5 13.6 -27.5 -1.9C-27.5 -17.4 -13.8 -34.8 0.1 -34.8C14 -34.8 27.9 -17.4 27.9 -1.9Z" stroke="#F7760E" fill="none" stroke-width="20"></path></g><g transform="translate(721 42)"><path d="M33.3 0.4C33.3 18 16.7 36 0.7 36C-15.3 36 -30.6 18 -30.6 0.4C-30.6 -17.1 -15.3 -34.3 0.7 -34.3C16.7 -34.3 33.3 -17.1 33.3 0.4Z" stroke="#F7760E" fill="none" stroke-width="20"></path></g><g transform="translate(2 3)"><path d="M34.7 0.6C34.7 21.4 17.3 42.8 -1.5 42.8C-20.4 42.8 -40.8 21.4 -40.8 0.6C-40.8 -20.2 -20.4 -40.3 -1.5 -40.3C17.3 -40.3 34.7 -20.2 34.7 0.6Z" stroke="#F7760E" fill="none" stroke-width="20"></path></g><g transform="translate(284 233)"><path d="M33.8 2.3C33.8 20.3 16.9 40.5 -0.8 40.5C-18.4 40.5 -36.8 20.3 -36.8 2.3C-36.8 -15.7 -18.4 -31.4 -0.8 -31.4C16.9 -31.4 33.8 -15.7 33.8 2.3Z" stroke="#F7760E" fill="none" stroke-width="20"></path></g><g transform="translate(614 261)"><path d="M36.3 -0.9C36.3 15.1 18.2 30.2 1.5 30.2C-15.1 30.2 -30.2 15.1 -30.2 -0.9C-30.2 -16.9 -15.1 -33.8 1.5 -33.8C18.2 -33.8 36.3 -16.9 36.3 -0.9Z" stroke="#F7760E" fill="none" stroke-width="20"></path></g><g transform="translate(113 242)"><path d="M33.4 1.3C33.4 15.9 16.7 31.8 1.9 31.8C-12.9 31.8 -25.8 15.9 -25.8 1.3C-25.8 -13.4 -12.9 -26.8 1.9 -26.8C16.7 -26.8 33.4 -13.4 33.4 1.3Z" stroke="#F7760E" fill="none" stroke-width="20"></path></g><g transform="translate(390 27)"><path d="M38.1 0.1C38.1 17.1 19 34.2 1.4 34.2C-16.1 34.2 -32.3 17.1 -32.3 0.1C-32.3 -16.9 -16.1 -33.8 1.4 -33.8C19 -33.8 38.1 -16.9 38.1 0.1Z" stroke="#F7760E" fill="none" stroke-width="20"></path></g><g transform="translate(852 145)"><path d="M34.1 1.5C34.1 18.5 17 37.1 -0.2 37.1C-17.5 37.1 -35 18.5 -35 1.5C-35 -15.6 -17.5 -31.2 -0.2 -31.2C17 -31.2 34.1 -15.6 34.1 1.5Z" stroke="#F7760E" fill="none" stroke-width="20"></path></g><g transform="translate(197 88)"><path d="M37.4 0.6C37.4 18.6 18.7 37.2 0.1 37.2C-18.5 37.2 -37.1 18.6 -37.1 0.6C-37.1 -17.4 -18.5 -34.9 0.1 -34.9C18.7 -34.9 37.4 -17.4 37.4 0.6Z" stroke="#F7760E" fill="none" stroke-width="20"></path></g><g transform="translate(6 431)"><path d="M40.8 -0.2C40.8 24.1 20.4 48.2 -0.4 48.2C-21.2 48.2 -42.4 24.1 -42.4 -0.2C-42.4 -24.6 -21.2 -49.1 -0.4 -49.1C20.4 -49.1 40.8 -24.6 40.8 -0.2Z" stroke="#F7760E" fill="none" stroke-width="20"></path></g><g transform="translate(574 420)"><path d="M32.6 0.5C32.6 15.3 16.3 30.7 0.1 30.7C-16 30.7 -32 15.3 -32 0.5C-32 -14.3 -16 -28.5 0.1 -28.5C16.3 -28.5 32.6 -14.3 32.6 0.5Z" stroke="#F7760E" fill="none" stroke-width="20"></path></g></g></svg>