<svg id="visual" viewBox="0 0 900 450" width="900" height="450" xmlns="http://www.w3.org/2000/svg" xmlns:xlink="http://www.w3.org/1999/xlink" version="1.1"><rect width="900" height="450" fill="#FFFFFF"></rect><g><g transform="translate(340 96)"><path d="M0 -112.2L97.1 -56.1L97.1 56.1L0 112.2L-97.1 56.1L-97.1 -56.1Z" fill="none" stroke="#FF0066" stroke-width="2"></path></g><g transform="translate(671 259)"><path d="M0 -103L89.2 -51.5L89.2 51.5L0 103L-89.2 51.5L-89.2 -51.5Z" fill="none" stroke="#FF0066" stroke-width="2"></path></g><g transform="translate(39 166)"><path d="M0 -106L91.8 -53L91.8 53L0 106L-91.8 53L-91.8 -53Z" fill="none" stroke="#FF0066" stroke-width="2"></path></g><g transform="translate(661 22)"><path d="M0 -72L62.4 -36L62.4 36L0 72L-62.4 36L-62.4 -36Z" fill="none" stroke="#FF0066" stroke-width="2"></path></g><g transform="translate(262 376)"><path d="M0 -93L80.5 -46.5L80.5 46.5L0 93L-80.5 46.5L-80.5 -46.5Z" fill="none" stroke="#FF0066" stroke-width="2"></path></g><g transform="translate(862 125)"><path d="M0 -60L52 -30L52 30L0 60L-52 30L-52 -30Z" fill="none" stroke="#FF0066" stroke-width="2"></path></g></g></svg>